<?xml version="1.0" encoding="utf-8"?>

<!DOCTYPE svg PUBLIC "-//W3C//DTD SVG 1.1//EN" "http://www.w3.org/Graphics/SVG/1.1/DTD/svg11.dtd">
<svg version="1.1" id="Layer_1" xmlns="http://www.w3.org/2000/svg" xmlns:xlink="http://www.w3.org/1999/xlink" x="0px" y="0px"
	 viewBox="0 0 1377.679 1661.313" enable-background="new 0 0 1377.679 1661.313" xml:space="preserve">
<g>
	<path fill="white" d="M1228.575,39.782c7.172-3.064,14.211-6.476,21.57-9.126c-1.552,6.771-6.289,12.632-5.687,19.898
		c14.666-6.543,28.087-18.814,45.148-17.636c-6.343,4.871-12.605,10.504-14.278,18.72c13.368,1.659,28.582-3.385,40.358,5.138
		c-21.469,14.169-58.355,8.34-86.456,17.128c-87.869,24.683-144.083,74.796-162.795,86.201
		c-10.879,7.146-23.056,14.813-27.338,27.873c3.895,3.189,5.992,8.849,16.378-3.84c3.519-5.112,8.885-8.363,13.716-12.083
		c45.717-34.614,51.315-40.992,87.272-55.585c73.712-30.592,10.81-15.757,101.376-37.106c10.223-2.302,20.848,0.361,31.098-1.592
		c14.746-4.683,29.305-9.969,44.064-14.612c0,0.736,0,2.208,0,2.957c-12.645,3.185-26.963,6.369-34.818,17.85
		c14.532-0.08,28.783-3.613,43.301-4.041c-1.208,13.109-16.096,25.581-27.726,31.526c-0.013,0.87-0.054,2.609-0.067,3.466
		c19.594,3.74,36.06,18.398,38.564,24.394c-13.314,0.268-25.464,8.176-38.939,6.129c-2.757-0.856-4.563,0.08-5.005,2.957
		c8.055,3.439,15.375,8.537,21.035,15.268c4.282,5.259,9.942,9.407,13.207,15.455c-12.471-0.388-24.715-2.93-37.079-4.282
		c4.322,9.527,8.979,18.988,11.267,29.265c-2.783-0.321-5.566-0.589-8.31-0.749c3.104,5.754,6.356,11.441,9.527,17.168
		c5.192,8.952,2.797,20.326,8.403,29.117c4.068,6.838,8.872,13.542,10.33,21.544c2.061,11.842-3.559,23.551-1.137,35.393
		c4.016,21.407,11.632,61.137,0.495,80.407c-6.423,10.464-4.242,23.23-6.891,34.737c-1.405,4.817-4.443,8.992-5.861,13.809
		c-1.351,6.624-0.147,13.502-1.472,20.139c-1.766,6.704-4.884,12.993-6.49,19.751c-4.717,25.13,4.485,8.124-15.335,61.286
		c-5.071,12.391-4.576,26.08-8.015,38.886c-3.198,11.535-7.748,22.628-11.642,33.948c-6.476,18.533-9.741,38.096-17.315,56.268
		c-3.118,7.935-10.973,12.632-14.425,20.353c-8.126,17.664-7.178,33.614-27.766,38.993c-0.415,6.972-0.054,14.13-2.114,20.875
		c-1.539,5.031-6.717,7.922-8.323,12.873c-0.937,7.667,2.462,15.562,0.054,23.109c-3.104,5.46-8.591,9.139-11.722,14.586
		c-1.592,6.329,0.495,13.047-1.311,19.349c-3.265,6.557-8.577,11.869-11.99,18.346c-2.168,5.138-0.442,11.12-2.864,16.191
		c-3.693,5.928-10.772,8.872-14.104,15.067c-2.997,6.945,0.656,14.88-2.128,21.851c-3.278,4.857-9.38,6.784-13.006,11.307
		c-2.302,4.724-2.034,10.384-4.938,14.866c-4.764,7.199-11.963,12.364-16.86,19.456c-3.519,6.771-4.643,14.532-8.016,21.37
		c-2.636,3.198-7.534,3.894-9.674,7.587c-5.577,14.069-3.151,17.537-18.439,21.691c-7.598,24.258-40.965,49.318-66.973,69.743
		c-58.59,51.337-81.149,71.201-89.466,149.882c-16.948,11.189-8.279,14.15-7.801,21.37c-0.468,3.332-1.619,6.53-2.489,9.782
		c20.342,21.126,8.093,15.777,21.905,19.777c11.535,2.195,23.818,6.035,30.991,16.031c-3.078,6.396-2.743,13.836-0.107,20.326
		c1.157,4.579,21.949,6.275,39.916,10.183c-0.027,4.777-2.516,8.992-3.225,13.649c7.828,1.659,17.69,4.161,19.764,13.207
		c-2.087,4.161-5.607,7.105-10.103,8.323c1.592,2.369,3.238,4.75,4.911,7.105c20.553,1.726,41.147-0.883,61.313-4.764
		c5.633-1.593,8.912,5.848,14.478,4.63c56.943-8.816,57.204,34.196,72.446,45.188c9.179,6.249,17.141,14.224,23.698,23.163
		c15.738,22.344,9.27,34.797,5.433,42.539c-1.524-6.463-5.26-44.489-35.58-49.095c-0.549,1.084-1.633,3.252-2.168,4.335
		c-2.462-7.386-11.28-5.941-17.195-4.456c-2.221,8.631-3.131,17.73-6.905,25.879c-44.089,12.939-45.557,1.215-55.933-3.078
		c-9.701-0.883-19.47,0.187-29.184-0.401c-7.119-1.004-12.297-8.39-19.858-7.293c-7.667,0.361-15.455,2.128-23.042,0.254
		c-15.268-2.971-31.098-8.069-46.647-4.202c-8.591,2.154-11.133,11.468-16.272,17.476c-3.332,4.055-8.724,4.898-13.609,5.593
		c-3.656,24.535,11.557,42.451,19.577,63.922c-20.193-13.091-25.487-37.927-33.68-64.363c-2.971-10.451-10.598-18.68-14.331-28.809
		c-2.569-0.897-5.138-1.766-7.667-2.623c-0.856,7.159-1.244,15.643-8.363,19.603c-4.081-2.248-8.163-4.443-12.271-6.597
		c-1.619,8.255-1.39,17.47-12.003,17.114c-3.519-2.85-5.633-6.958-8.189-10.584c-2.971,4.884-4.028,11.146-8.604,14.893
		c-5.981-1.98-8.898-8.376-11.066-13.796c-6.691,1.673-13.395,3.492-20.326,3.68c-2.754,21.02-3.636,49.327,10.799,64.992
		c-30.042-8.982-27.484-60.638-32.904-94.846c2.422-2.944,5.031-5.727,7.855-8.296c-0.201-5.714-0.428-11.414-0.642-17.115
		c-10.334-3.215-11.433-2.044-13.943-17.155c-0.776-0.08-2.328-0.228-3.104-0.308c-2.77,5.071-6.343,10.718-12.511,11.789
		c-6.57-2.034-7.788-9.902-9.019-15.709c-0.709-0.241-2.141-0.722-2.85-0.963c-3.747,4.402-8.31,8.176-14.01,9.675
		c-8.256-5.915-10.063-16.312-12.886-25.371c-3.787,1.552-6.931,4.188-9.38,7.453c-3.439-0.442-7.761,0.803-10.33-2.154
		c-6.905-6.677-5.018-17.168-6.891-25.745c-5.995,4.402-9.621,12.431-17.984,12.752c-8.377-12.859-4.964-28.636-3.479-42.86
		c-5.473,1.86-8.51,6.851-12.618,10.477c-6.517,3.934-14.13,5.513-21.289,7.882c-7.346,2.864-16.552-4.162-22.507,2.596
		c-8.149-2.502-16.365-5.393-23.082-10.812c-9.153,9.019-12.766,21.958-21.222,31.472c-6.838,5.781-14.304,10.772-21.383,16.258
		c-1.07,16.472-1.539,33.011-3.211,49.43c-4.784,25.762-24.798,117.386-48.788,128.459c-5.593-10.304-8.43-21.785-10.103-33.319
		c-1.405-0.508-2.783-1.004-4.135-1.512c-5.941,11.347-15.362,20.165-24.354,29.05c-1.124-0.187-3.372-0.549-4.483-0.736
		c-8.082-17.328-6.744-36.959-7.132-55.585c-10.183,7.574-18.68,17.114-27.097,26.521c-2.395-0.308-4.777-0.602-7.146-0.883
		c-2.69-20.125,3.158-40.023,2.904-60.122c-11.212,7.24-7.435,17.192-26.187,23.926c-12.239-16.571,0.724-59.468-0.174-70.385
		c-7.748,3.912-12.061,24.306-31.191,36.41c-1.726-1.592-3.439-3.158-5.152-4.724c-0.522-12.056-1.686-24.099-1.03-36.169
		c-11.546,7.169-14.41,22.778-49.055,152.826c-6.276,24.996-14.264,49.59-18.827,74.988c-1.539,8.029-3.68,15.964-6.771,23.551
		c-12.552,2.021-24.809-2.208-37.093-4.068c-1.191,2.556-2.395,5.125-3.6,7.708c-14.412,0.294-28.475-3.479-41.856-8.497
		c-5.085-2.904-9.594,2.275-14.706,2.221c-13.823,0.495-22.293-14.96-36.236-13.662c-16.149-0.453-34.742-14.157-47.008-24.809
		c-4.63,0.054-9.42,1.766-13.863-0.348c-20.875-7.935-37.481-25.197-46.995-45.148c0.95-2.435,1.9-4.857,2.864-7.266
		c-12.685-3.894-21.062-16.031-23.725-28.582c1.606-1.432,3.198-2.85,4.817-4.242c-4.068-10.384-12.953-17.556-18.64-26.923
		c3.118-5.821,9.835-7.346,14.478-11.494c-4.121-5.339-8.617-10.772-9.327-17.743c32.971-20.982,62.637-46.513,92.731-71.281
		c12.725-11.481,30.201-18.72,37.842-34.978c-27.111-7.495-22.496-4.921-25.451-11.548c-9.832-29.132,21.344-66.649,38.966-94.859
		c3.064-4.777,5.031-10.236,8.738-14.585c1.271,2.81,2.235,6.57,5.901,7.025c39.017,9.706,39.619,1.651,46.178-2.663
		c6.637,8.149,18.225,7.748,27.712,6.891c8.283-0.401,13.421-7.574,19.456-12.23c15.038,21.248,27.817,12.113,49.965,3.533
		c10.718-4.496,22.654-4.723,33.359-9.286c2.007,6.142,9.273,7.145,14.84,6.61c12.632-1.458,22.427-10.491,34.189-14.465
		c17.59,13.119,49.241,0.304,70.104-6.878c4.242-1.097,6.758-4.817,9.38-7.989c8.564,0.602,17.422,3.118,25.839,0.214
		c17.101-5.566,32.396-15.254,48.614-22.788c25.192,19.297,61.794-16.947,75.644-14.639c7.828,0.736,15.121,6.53,23.176,3.814
		c21.526-6.528,51.573-22.69,69.207-38.203c14.626,2.047,29.479,0.08,43.823-2.957c45.413-10.721,41.916-22.795,59.814-31.767
		c25.431,7.485,89.73-34.525,104.4-62.945c4.255-7.48,7.279-16.298,14.478-21.557c13.237-7.957,83.367-31.95,119.922-150.591
		c4.509-12.137,1.82-25.411,5.005-37.815c3.626-15.415,6.597-31.419,3.72-47.235c-3.863-0.483-9.472-5.13-10.063,7.4
		c-0.12,7.627,0.977,15.321-0.455,22.909c-2.81,18.105-3.573,36.731-9.715,54.14c-12.699,36.664-28.542,74.506-58.917,100.131
		c-12.672,9.795-21.45,24.809-37.159,30.362c21.396-35.233,22.561-78.266,41.174-114.69c4.846-9.443,8.499-29.998,2.81-35.848
		c-1.9-0.388-3.84-0.455-5.727-0.602c-2.088,6.436-2.368,13.207-2.997,19.898c-0.602,7.493-4.964,13.849-7.373,20.821
		c-8.063,21.92-31.396,168.928-144.249,202.791c26.388-38.832,43.69-82.762,61.995-125.729
		c17.986-42.286,29.331-56.504,25.331-76.915c7.306-6.878,11.909-16.084,19.416-22.735c33.298-27.231,79.646-33.438,91.179-85.385
		c16.581,6.74,55.113-25.4,73.302-80.662c2.833-7.887,0.597-15.284,1.539-62.838c27.015,61.657-8.731,229.514-40.625,267.074
		c-5.981,7.587-13.154,15.214-14.452,25.21c1.111,2.743,4.162,3.573,6.517,4.951c34.847-36.714,47.018-95.952,57.552-146.243
		c11.749-58.534,10.331-39.336,10.865-94.324c-0.486-12.711,4.131-26.363-15.91-80.729c-8.015-20.363-8.583-15.615-14.264-16.94
		c-11.142,33.117,13.502,76.613-12.899,128.807c-9.875,18.841-24.621,36.865-45.469,43.743
		c8.191-30.418,32.282-78.256,21.624-87.473c-1.914-0.562-3.934-0.616-5.861-0.843c-21.133,80.612-30.299,131.958-102.513,165.886
		c4.471-8.486,41.987-85.635,42.913-92.236c0.495-2.971-0.749-5.968-3.131-7.761c-3.707,0.508-5.46,4.456-7.373,7.226
		c-28.915,50.908-34.672,130.958-124.94,149.762c11.738-33.712,27.243-28.191,53.15-102.5c3.827-10.651,6.798-21.718,12.552-31.539
		c4.416-7.601,8.002-15.79,8.925-24.608c-12.712-7.199-4.086-10.118-41.495,79.096c-9.648,20.794-21.035,40.746-33.279,60.108
		c-26.293,39.54-22.368,19.901-35.621,27.605c-4.175,3.332-5.272,9.822-10.678,11.708c-11.775,4.362-24.568,4.951-36.37,9.246
		c-4.496,1.86-9.42,1.579-14.157,1.298c36.868-34.182,45.359-59.638,65.153-97.442c2.797-5.433,8.778-8.296,11.387-13.849
		c11.872-23.047,41.265-71.996,33.747-88.69c-1.338-3.238-6.49-4.215-8.256-0.87c-3.051,6.798-0.401,14.8-3.653,21.57
		c-6.851,14.612-13.876,29.131-20.66,43.77c-6.517,15.295-20.888,25.732-26.736,41.401c-17.155,42.86-25.109,40.745-43.797,70.09
		c-3.024,4.443-5.54,9.514-10.17,12.565c-16.098,11.347-35.875,14.907-53.859,22.159c-3.626,1.619-7.614,1.807-11.508,1.82
		c14.411-20.487,33.225-37.427,47.664-57.9c35.158-54.22,52.968-108.144,59.145-118.718c11.055-19.397,23.859-37.485,23.604-47.677
		c-1.445-1.03-2.917-1.954-4.443-2.797c-36.951,39.711-49.416,97.092-57.151,108.655c-11.076,18.567-20.865,43.718-29.479,52.307
		c-38.306,38.769-37.48,65.028-107.183,83.619c-3.038-4.095-5.901-8.35-7.708-13.14c12.03-8.109,19.483-20.808,26.615-33.078
		c5.821-10.397,14.01-19.175,20.098-29.412c13.662-21.758,23.417-45.964,39.622-66.09c12.69-16.071,7.945-21.645,29.853-62.423
		c6.586-11.427-3.392-7.837,37.293-60.376c11.414-13.903,28.395-23.484,35.621-40.572c2.342-3.988-1.111-11.08-6.115-9.22
		c-7.987,4.035-4.279,9.094-22.855,29.639c-46.689,51.424-40.135,52.838-72.66,112.054c-4.991,8.684-6.075,18.988-11.28,27.565
		c-28.05,47.366-85.145,154.574-139.418,151.702c-5.031-1.512-4.456-7.6-5.352-11.735c-1.847-7.855,4.724-13.502,8.43-19.536
		c39.704-54.052,60.873-169.871,143.419-247.27c10.598-10.437,24.099-17.891,32.369-30.616
		c13.076-20.137,39.525-37.084,46.004-50.447c1.994-3.947-1.686-7.895-5.593-8.176c-1.003,0.813-29.857,25.695-50.019,53.203
		c-10.351,15.082-55.514,46.536-85.144,98.044c-27.324,47.155-48.614,97.428-73.917,145.654
		c-8.88,16.561-13.978,39.612-27.271,48.935c-6.369,4.389-14.974,2.462-21.37,6.798c-6.945,4.563-13.769,9.286-20.701,13.89
		c-1.458-63.501-6.162-48.038,21.771-118.53c13.1-32.172,47.291-141.135,64.818-153.254c11.106-7.833,41.543-26.525,52.882-31.459
		c42.46-18.367,103.432-57.489,130.948-63.908c20.342-4.966,47.644-7.792,47.235-17.797c-3.083-10.489-26.356,1.237-37.481,4.496
		c-32.316,9.635-50.392,23.692-97.535,43.957C593.633,656.216,470.874,751.215,399.278,831.09
		c14.075-64.016,32.624-133.301,63.641-190.655c7.159-13.073,8.47-29.051,18.399-40.612c9.42-10.544,23.912-14.8,32.984-25.772
		c26.95-29.867,60.416-52.575,93.494-75.001c11.16-7.012,17.462-19.924,29.76-25.331c77.687-38.341,68.68-31.665,73.677-46.54
		c3.994-15.047,28.094-32.226,41.227-40.518c17.195-10.745,37.507-15.602,54.006-27.565c21.147-15.849,16.111-26.034,22.039-45.135
		c2.837-6.583,10.237-9.246,14.371-14.773c0.188-1,4.56-49.429,13.22-70.345c3.145,3.6,6.035,7.413,8.898,11.227
		c-2.716,7.922-9.849,13.836-9.929,22.694c5.085,4.897,11.414,8.176,18.185,10.089c-2.462,4.295-5.62,8.617-5.647,13.769
		c4.516,8.112,13.966,4.546,27.793,9.166c-2.823,3.586-6.276,6.811-8.35,10.919c-0.094,2.783,0.228,5.58,0.442,8.363
		c8.979,4.148,19.015,3.613,28.636,3.506c-2.328,4.737-5.339,9.394-5.714,14.786c4.892,10.904,20.137-1.051,31.325-3.653
		c0.308,5.366,0.509,10.745,0.749,16.124c2.85,0.682,5.687,1.365,8.55,2.087c3.225-2.703,5.955-5.955,7.774-9.768
		c1.673,7.132,4.657,15.75,12.792,17.476c4.148-5.58,7.948-11.414,12.324-16.82c3.211-4.055,10.491-3.827,11.856-9.434
		c1.356-5.782-10.55-13.159-25.063,9.072c-2.315-5.179-4.229-10.504-6.41-15.71c-4.121,1.525-8.002,3.653-11.481,6.356
		c-1.256-5.465,0.208-17.193-26.414-6.182c0.749-3.573,1.659-7.212,1.244-10.879c-7.48-5.526-17.436-4.884-26.254-4.897
		c4.55-5.138,4.978-12.097,3.439-18.493c-6.972-4.523-15.067-6.998-23.39-6.905c1.753-4.857,2.89-10.156,1.244-15.214
		c-4.67-3.787-10.705-5.46-15.883-8.444c3.038-5.045,8.029-9.42,8.818-15.495c0.776-6.41-4.938-10.584-7.159-15.977
		c-0.348-7.708,1.352-15.348,1.017-23.029c-1.86-4.871-9.019-6.276-9.26-11.936c-0.241-1.806-0.442-3.613-0.602-5.419
		c3.225-1.311,6.463-2.636,9.701-3.947c-1.057-6.088-2.917-11.976-4.202-17.998c2.837-0.482,5.687-0.963,8.551-1.485
		c-2.823-7.493-6.945-14.666-13.234-19.751c-0.241-8.671,0.201-17.369,1.994-25.866c21.562-4.169,24.683,6.631,40.973,13.609
		c28.542,12.966,55.318,29.519,80.782,47.744c5.299,3.64,7.855,9.835,12.458,14.171c6.057,6.681,12.939-5.716,4.911-14.345
		c-6.517-7.373-16.218-10.464-24.126-15.95c-10.13-7.279-19.63-15.402-30.041-22.266c-9.006-5.045-18.894-8.283-27.82-13.475
		c-51.81-31.835-44.789-26.02-66.611-17.422c-5.286,16.646-4.683,34.336-7.32,51.424c-7.038-13.649-5.941-29.439-3.76-44.131
		c-9.755-4.228-22.427-5.7-27.672-16.271c10.437-1.137,19.617-7.052,30.148-7.694c-1.365-5.794-5.513-10.089-9.621-14.104
		c18.386,1.499,36.089,7.36,54.435,9.139c-0.495-4.416-1.352-8.765-2.342-13.087c8.698,3.439,17.235,7.293,26.026,10.477
		c11.334,3.051,23.31,0.629,34.778,3.104c12.456-11.55,19.773-14.105,36.972-11.347c9.889-5.165,20.179-11.254,31.753-10.638
		c4.898-0.254,10.277,1.057,14.746-1.592c6.356-3.319,12.364-8.457,20.018-7.895c10.839-0.923,21.57,4.884,32.249,1.352
		c30.792-8.745,29.1,1.287,42.833,5.607c20.344,1.665-4.055-4.867,45.389,6.356c11.468-8.992,23.39-17.529,33.56-28.047
		c3.385,2.061,4.911,5.406,4.938,9.313C1217.201,48.962,1221.697,42.458,1228.575,39.782 M1227.598,124.191
		c-13.893,5.661-26.298,14.425-25.879,18.118c6.365,12.538,22.766-3.839,28.582-7.226c-3.146,15.076-15.99,35.243,3.666,33.761
		c-4.148,8.377,2.931,17.623,11.374,19.135c-4.215,0.642-8.39,1.392-12.578,2.101c-7.529,17.767,8.017,26.956,18.359,42.592
		c-5.112-0.736-10.263-1.231-15.415-0.776c-4.911,9.956-0.736,20.848,1.646,30.87c-12.097,0.067-24.193-0.08-36.29,0.08
		c-4.081,13.421,4.135,26.133,6.744,39.006c-6.718-1.226-32.543-9.595-30.175,2.248c0.669,8.243,6.918,14.345,11.708,20.54
		c-10.507-1.299-41.678-8.597-41.642,2.061c-0.294,6.878,5.005,12.11,7.734,18.011c-8.096-5.406-15.776-11.923-25.451-14.278
		c-4.175,7.333-3.907,15.95-2.783,24.059c-42.231-25.024-33.569-21.913-42.097-16.379c-3.278-6.209-6.637-13.957-14.117-15.857
		c-2.676,2.288-4.469,5.379-6.463,8.229c-3.385-6.543-4.817-13.783-5.888-20.995c-5.781-2.703-11.294,1.218-16.579,3.225
		c-2.596,9.434-3.211,19.416-1.793,29.091c1.967,2.583,6.878,3.546,8.751,0.335c1.98-3.506,3.024-7.427,4.402-11.187
		c2.837,9.394,5.406,18.908,6.905,28.636c2.542,0.522,5.112,0.99,7.708,1.472c1.927-6.985,3.787-14.01,5.7-21.008
		c6.771,9.006,7.708,20.982,14.679,29.8c2.021,3.292,7.614,4.188,8.738-0.335c0.428-6.557-0.401-13.114-0.361-19.67
		c18.306,6.778,35.257,30.254,39.996,19.764c3.024-7.239,1.017-15.295,0.642-22.828c11.081,8.398,47.74,46.396,25.036-12.993
		c17.896,1.439,32.531,6.667,38.979-1.766c0.094-7.868-4.63-14.692-8.524-21.169c6.731,0.883,13.488,1.633,20.232,2.409
		c2.382-3.104,5.286-6.249,5.299-10.424c0.508-9.982-3.078-19.563-6.798-28.636c11.481-0.522,23.056,0.134,34.483-1.164
		c4.737-9.581-0.803-19.911-1.82-29.693c7.815,2.087,15.107,7.721,23.497,6.624c4.456-1.178,3.988-6.476,4.657-10.049
		c-11.334-11.909-23.524-23.738-29.813-39.26c12.739-1.119,20.416-0.23,20.339-9.032c-2.783-7.908-10.397-12.525-17.61-15.843
		c17.553-7.337,14.925-10.586,15.683-17.409c-8.243-3.118-17.195-3.252-25.866-2.649c3.28-7.522,9.409-25.953,3.158-31.044
		C1235.747,121.046,1230.997,123.053,1227.598,124.191 M1118.368,157.068c-30.03,8.282-34.431,47.815-14.197,65.701
		c16.113,14.44,51.401,9.495,60.055-24.568C1170.832,172.714,1144.981,152.566,1118.368,157.068 M944.44,174.343
		c-21.987,6.363-27.356,37.98-15.509,56.79c6.536,10.308,22.506,17.938,32.704,1.097C976.696,206.706,962.81,167.066,944.44,174.343
		 M1002.42,236.739c-24.361,42.099,4.784,96.362,8.417,112.776c0.816,3.452,2.007,7.667,5.754,8.979
		c8.354,2.878,6.822-17.62,7.092-25.023c-0.214-13.622,7.815-25.585,9.514-38.845c1.312-9.206-7.908-15.214-8.604-23.992
		c-0.856-6.798,0.12-13.756-1.097-20.5c-3.466-5.941-9.019-10.223-13.876-14.947C1007.197,235.709,1004.802,236.231,1002.42,236.739
		z"/>
	<path fill="white" d="M1121.165,174.985c3.733-0.616,7.721-1.365,11.481-0.508c6.41,3.747,11.829,9.848,13.983,17.034
		c-0.088,24.81-29.948,26.16-34.671,7.346C1110.058,190.186,1113.283,179.588,1121.165,174.985z"/>
	<path fill="white" d="M950.555,189.905c15.906,12.972,7.218,36.919-5.687,31.874c-6.194-3.045-11.058-9.044-7.172-24.675
		C938.548,192.893,945.984,188.956,950.555,189.905z"/>
	<path fill="white" d="M456.563,625.234c-4.161,22.266-22.467,38.939-25.277,61.66c-19.052,3.634-57.862,28.402-86.549,45.228
		c13.774-28.574,37.597-41.6,78.802-82.307c1.07,0.401,3.211,1.218,4.282,1.619C433.826,643.04,432.105,640.614,456.563,625.234z"/>
	<path fill="white" d="M580.66,691.003c-6.262,18.974-17.221,35.861-25.237,54.073c-9.728,21.945-12.418,46.339-22.815,68.03
		c-14.653,30.531-28.122,57.549-27.793,95.863c-4.456,2.93-9.072,5.647-13.341,8.858c-1.282,8.451,1.476,14.381-24.809,20.487
		c-29.905-30.577,12.725-134.61,25.504-166.836c2.288-5.54,2.422-11.642,4.469-17.235
		C500.762,746.029,565.514,699.815,580.66,691.003z"/>
	<path fill="white" d="M389.778,719.852c12.337-5.674,22.802-14.933,35.942-18.921c-6.851,20.62-13.823,41.201-20.62,61.848
		c-2.248-1.084-4.496-2.128-6.757-3.118c-15.308,14.545-35.821,21.37-52.615,33.828c-18.533,12.873-33.68,29.786-51.29,43.797
		c-4.884,3.947-8.51,9.139-11.668,14.519c-1.873-2.917-3.64-6.182-3.078-9.782C281.289,825.582,310.755,757.685,389.778,719.852z"/>
	<path fill="white" d="M429.185,814.189c17.034-14.866,33.72-30.121,50.822-44.907c-7.923,45.306-34.419,74.798-33.627,134.762
		c-11.841,4.025-9.198,16.907-20.955,22.628c-7.922,4.175-15.643,8.738-23.671,12.712
		C392.972,905.018,417.115,823.904,429.185,814.189z"/>
	<path fill="white" d="M400.777,772.266c-2.208,9.005-5.486,17.824-5.941,27.177c-19.078,1.445-17.794,13.042-30.014,20.018
		c-6.65,3.921-13.916,6.998-19.617,12.351c-46.616,41.5-46.111,95.123-84.582,88.382c-3.265-12.043,3.278-23.631,9.768-33.306
		C311.271,829.998,331.855,818.552,400.777,772.266z"/>
	<path fill="white" d="M379.207,821.723c3.76-4.349,8.015-8.27,12.725-11.561c-12.705,49.327,20.235,7.623-53.257,92.049
		c-1.512-0.482-3.024-0.95-4.523-1.378c-26.264,11.353-26.321,14.337-33.466,14.867
		C349.132,822.579,364.867,838.483,379.207,821.723z"/>
	<path fill="white" d="M405.019,842.812c-4.071,29.233-17.074,44.606-17.222,83.418c-10.688,11.532-22.23,18.854-37.387,11.468
		c0.013-2.797,0.696-5.567,0.602-8.35c-1.579-1.539-3.452-2.703-5.232-3.921C346.362,908.674,331.344,926.002,405.019,842.812z"/>
	<path fill="white" d="M899.867,888.12c11.816-2.328,21.918-9.193,32.717-14.157c-7.012,34.778-25.223,65.688-42.07,96.425
		c-14.392,25.202-27.172,127.616-142.215,135.511c31.358-52.428,49.116-93.426,87.914-165.672
		c6.369-11.829,9.527-25.049,15.228-37.146C859.544,894.434,881.474,892.372,899.867,888.12z"/>
	<path fill="white" d="M781.979,922.202c18.533,0.401,35.326-8.617,53.444-10.799c-12.351,31.968-29.332,61.861-46.245,91.581
		c0,0-10.729,34.735-38.872,81.451c-11.262,17.768-13.307,22.8-51.37,41.013c-18.432,8.725-19.496,13.303-42.003,14.906
		c33.158-36.129,52.789-81.652,75.483-124.485C748.285,984.317,771.649,956.418,781.979,922.202z"/>
	<path fill="white" d="M444.159,943.813c2.676-8.724-1.887-18.466,3.278-26.588c0.522,10.986,3.158,23.39,12.899,29.96
		c7.547,5.352,17.074,1.097,24.715-1.793c-2.502,21.182-10.946,40.96-19.536,60.269c-16.071,35.768-27.097,73.57-43.261,109.311
		c-4.964,11.254-11.254,21.878-16.084,33.199c-6.008,13.234-11.307,27.137-20.58,38.538c-16.99,21.253-56.684,14.685-82.214,30.777
		c-3.814-1.512-7.614-3.038-11.307-4.804c9.113-6.276,20.446-8.39,29.171-15.281c6.113-5.026,47.996-63.471,68.739-118.771
		c4.523-11.267,7.427-23.136,12.739-34.068C407.326,1034.817,429.184,998.05,444.159,943.813z"/>
	<path fill="white" d="M739.815,930.632c9.996-4.389,19.389-10.611,30.375-12.351c-1.583,18.812-23.036,44.761-33.667,66.772
		c-14.465,32.811-33.413,63.346-51.424,94.27c-7.627,13.167-12.538,27.873-21.517,40.264
		c-13.644,19.109-52.315,28.771-79.618,39.581c9.289-9.245,16.436-5.828,36.209-38.939c62.643-126.013,38.332-72.399,73.931-137.692
		c19.936-37.854,10.91-28.171,20.032-47.918C722.687,933.268,731.746,934.325,739.815,930.632z"/>
	<path fill="white" d="M306.881,959.683c9.113-11.869,15.375-26.334,27.726-35.407c2.952,23.776-21.187,52.37-35.875,81.866
		c-60.547,115.228-60.503,148.011-98.713,180.431c-0.549-0.803-1.633-2.409-2.181-3.211c-7.172,1.753-13.957,4.857-21.062,6.865
		c3.429-19.054,24.913-61.776,29.894-66.13c3.506-3.104,4.643-7.855,6.57-11.949c25.451-58.334,53.777-106.015,61.874-116.322
		C284.869,983.06,297.113,972.448,306.881,959.683z"/>
	<path fill="white" d="M504.708,925.775c1.178,10.397,1.472,20.875,2.409,31.312c16.132,6.67,29.188-13.965,48.761-18.332
		c-14.974,43.997-36.812,85.211-59.292,125.756c-4.108,7.761-5.767,16.499-9.273,24.514c-2.69,5.861-7.4,10.424-10.785,15.843
		c-13.06,21.075-18.854,46.205-34.63,65.675c-13.529,16.911-51.399,29.57-55.719,30.616c3.867-5.513,8.671-10.263,13.194-15.214
		c14.057-15.322,24.806-49.834,35.313-74.613c10.625-24.635,22.146-48.895,31.927-73.877
		C481.237,1001.365,492.425,947.169,504.708,925.775z"/>
	<path fill="white" d="M704.275,932.211c-14.737,37.063-48.165,92.49-72.285,138.214c-11.053,21.343-18.667,44.88-34.216,63.587
		c-7.119,8.912-18.185,12.752-28.368,16.914c-14.234,5.439-31.934,24.093-59.385,26.187c7.734-5.098,12.123-13.421,18.279-20.072
		c20.299-22.989,33.774-50.888,46.192-78.668c3.76-8.644,10.718-15.428,14.318-24.153c5.46-13.154,9.996-26.789,17.422-39.019
		c12.525-21.651,26.414-43.636,30.228-68.806c3.934,2.034,7.627,4.509,11.2,7.146C696.718,934.48,697.358,933.181,704.275,932.211z"
		/>
	<path fill="white" d="M433.775,934.339c-0.816,7.427-3.024,14.626-6.302,21.343c-9.882,19.763-14.97,51.119-31.566,79.39
		c-8.684,14.719-11.093,31.954-17.877,47.463c-53.77,125.193-70.377,103.649-96.839,121.621
		c-8.724,5.861-18.185,12.19-29.184,11.762c12.364-4.871,25.919-9.246,34.657-19.898c4.939-6.375,55.131-111.982,77.892-179.2
		c8.363-24.34,22.681-46.714,27.03-72.339C400.85,951.154,400.513,958.453,433.775,934.339z"/>
	<path fill="white" d="M629.247,935.128c-2.56,24.264-7.472,24.893-78.561,166.461c-28.132,54.63-58.868,95.37-121.313,93.615
		c8.604-8.149,19.51-14.291,25.518-24.849c23.189-36.129,39.274-76.139,60.282-113.485c4.884-8.243,5.312-18.252,10.263-26.455
		c11.467-19.193,32.424-58.271,37.427-80.086C581.47,970.821,608.564,949.286,629.247,935.128z"/>
	<path fill="white" d="M342.837,946.582c9.474,8.363,23.203,5.473,34.563,3.961c-1.164,7.453-3.934,14.518-7.493,21.142
		c-8.979,15.696-10.812,34.122-17.449,50.755c-33.555,70.31-38.633,100.794-67.147,149.508c-4.054,6.798-4.349,15.95-11.187,20.915
		c-17.727,13.412-56.629,23.621-75.884,20.46c4.322-5.567,6.824-12.15,9.554-18.546c3.8-8.952,14.974-10.705,19.965-18.667
		c45.016-70.419,22.431-65.091,95.006-188.741C341.297,955.068,333.051,965.011,342.837,946.582z"/>
</g>
</svg>
